<?xml version="1.0" encoding="UTF-8" standalone="no"?>
<!-- Created with Inkscape (http://www.inkscape.org/) -->

<svg
   xmlns:dc="http://purl.org/dc/elements/1.1/"
   xmlns:cc="http://creativecommons.org/ns#"
   xmlns:rdf="http://www.w3.org/1999/02/22-rdf-syntax-ns#"
   xmlns:svg="http://www.w3.org/2000/svg"
   xmlns="http://www.w3.org/2000/svg"
   xmlns:sodipodi="http://sodipodi.sourceforge.net/DTD/sodipodi-0.dtd"
   xmlns:inkscape="http://www.inkscape.org/namespaces/inkscape"
   width="800"
   height="800"
   id="svg2"
   version="1.1"
   inkscape:version="0.48.2 r9819"
   sodipodi:docname="face_momonga.svg"
   inkscape:export-filename="C:\Devel\ozTest\ZamPan\images\face_momonga.png"
   inkscape:export-xdpi="90"
   inkscape:export-ydpi="90">
  <defs
     id="defs4" />
  <sodipodi:namedview
     id="base"
     pagecolor="#ffffff"
     bordercolor="#666666"
     borderopacity="1.0"
     inkscape:pageopacity="0.0"
     inkscape:pageshadow="2"
     inkscape:zoom="0.12374369"
     inkscape:cx="406.27063"
     inkscape:cy="1100.1275"
     inkscape:document-units="px"
     inkscape:current-layer="layer1"
     showgrid="true"
     objecttolerance="10000"
     guidetolerance="10000"
     inkscape:window-width="1366"
     inkscape:window-height="716"
     inkscape:window-x="-8"
     inkscape:window-y="-8"
     inkscape:window-maximized="1">
    <inkscape:grid
       type="xygrid"
       id="grid2985"
       empspacing="5"
       visible="true"
       enabled="true"
       snapvisiblegridlinesonly="true" />
  </sodipodi:namedview>
  <metadata
     id="metadata7">
    <rdf:RDF>
      <cc:Work
         rdf:about="">
        <dc:format>image/svg+xml</dc:format>
        <dc:type
           rdf:resource="http://purl.org/dc/dcmitype/StillImage" />
        <dc:title></dc:title>
      </cc:Work>
    </rdf:RDF>
  </metadata>
  <g
     inkscape:label="レイヤー 1"
     inkscape:groupmode="layer"
     id="layer1"
     transform="translate(0,-252.36218)">
    <path
       style="fill:#771af6;fill-opacity:1;stroke:#000000;stroke-width:12;stroke-linecap:butt;stroke-linejoin:miter;stroke-miterlimit:4;stroke-opacity:1;stroke-dasharray:none"
       d="m 440,-97.63782 120,-70 -80,120 100,109.99998 -140,-69.99998 -120,89.99998 80,-129.99998 -120,-90 140,50 -10,-120 z"
       id="path3822"
       inkscape:connector-curvature="0"
       sodipodi:nodetypes="ccccccccccc" />
    <path
       transform="translate(20,252.36216)"
       sodipodi:type="arc"
       style="fill:#0ddfff;fill-opacity:1;stroke:#000000;stroke-width:12;stroke-linecap:square;stroke-linejoin:miter;stroke-miterlimit:4;stroke-opacity:1;stroke-dasharray:none;stroke-dashoffset:0"
       id="path2987-0"
       sodipodi:cx="400"
       sodipodi:cy="400"
       sodipodi:rx="400"
       sodipodi:ry="400"
       d="M 799.99991,399.72472 C 800.15194,620.63856 621.18913,799.84787 400.27528,799.99991 179.36144,800.15194 0.15212925,621.18913 9.4725821e-5,400.27528 -0.15193979,179.36144 178.81087,0.15212925 399.72472,9.4725821e-5 620.54478,-0.15187525 799.71512,178.66462 799.99967,399.48455"
       sodipodi:start="6.2824971"
       sodipodi:end="12.565082"
       sodipodi:open="true" />
    <g
       transform="translate(20,-2e-5)"
       id="g3792">
      <path
         sodipodi:open="true"
         sodipodi:end="12.209047"
         sodipodi:start="5.9314021"
         transform="translate(60,292.36218)"
         d="m 555.71318,165.87993 c 13.32115,36.29239 -5.30073,76.51211 -41.59311,89.83325 -36.29239,13.32115 -76.51211,-5.30073 -89.83325,-41.59311 -13.32115,-36.29239 5.30073,-76.51211 41.59311,-89.83325 36.15029,-13.26899 76.22954,5.15319 89.69861,41.22941"
         sodipodi:ry="70"
         sodipodi:rx="70"
         sodipodi:cy="190"
         sodipodi:cx="490"
         id="path3763-9"
         style="fill:#ffffff;fill-opacity:1;stroke:#000000;stroke-width:10;stroke-linecap:square;stroke-linejoin:miter;stroke-miterlimit:4;stroke-opacity:1;stroke-dasharray:none;stroke-dashoffset:0"
         sodipodi:type="arc" />
      <path
         sodipodi:open="true"
         sodipodi:end="12.209047"
         sodipodi:start="5.9314021"
         transform="translate(42.44961,266.14507)"
         d="m 557.55039,226.21711 c 7.61208,20.7385 -3.02899,43.7212 -23.7675,51.33328 -20.7385,7.61208 -43.7212,-3.02899 -51.33328,-23.7675 -7.61208,-20.7385 3.02899,-43.7212 23.7675,-51.33328 20.6573,-7.58228 43.55973,2.94468 51.25634,23.55966"
         sodipodi:ry="40"
         sodipodi:rx="40"
         sodipodi:cy="240"
         sodipodi:cx="520"
         id="path3765-4"
         style="fill:#000000;fill-opacity:1;stroke:#000000;stroke-width:10;stroke-linecap:square;stroke-linejoin:miter;stroke-miterlimit:4;stroke-opacity:1;stroke-dasharray:none;stroke-dashoffset:0"
         sodipodi:type="arc" />
    </g>
    <g
       id="g3788"
       transform="matrix(-1,0,0,-1,368.74354,761.16478)">
      <path
         sodipodi:open="true"
         sodipodi:end="12.209047"
         sodipodi:start="5.9314021"
         transform="matrix(0,-1,1,0,-79.923265,772.57022)"
         d="m 555.71318,165.87993 c 13.32115,36.29239 -5.30073,76.51211 -41.59311,89.83325 -36.29239,13.32115 -76.51211,-5.30073 -89.83325,-41.59311 -13.32115,-36.29239 5.30073,-76.51211 41.59311,-89.83325 36.15029,-13.26899 76.22954,5.15319 89.69861,41.22941"
         sodipodi:ry="70"
         sodipodi:rx="70"
         sodipodi:cy="190"
         sodipodi:cx="490"
         id="path3763-1"
         style="fill:#ffffff;fill-opacity:1;stroke:#000000;stroke-width:10;stroke-linecap:square;stroke-linejoin:miter;stroke-miterlimit:4;stroke-opacity:1;stroke-dasharray:none;stroke-dashoffset:0"
         sodipodi:type="arc" />
      <path
         sodipodi:open="true"
         sodipodi:end="12.209047"
         sodipodi:start="5.9314021"
         transform="matrix(0,-1,1,0,-117.47357,826.35302)"
         d="m 557.55039,226.21711 c 7.61208,20.7385 -3.02899,43.7212 -23.7675,51.33328 -20.7385,7.61208 -43.7212,-3.02899 -51.33328,-23.7675 -7.61208,-20.7385 3.02899,-43.7212 23.7675,-51.33328 20.6573,-7.58228 43.55973,2.94468 51.25634,23.55966"
         sodipodi:ry="40"
         sodipodi:rx="40"
         sodipodi:cy="240"
         sodipodi:cx="520"
         id="path3765-7"
         style="fill:#000000;fill-opacity:1;stroke:#000000;stroke-width:10;stroke-linecap:square;stroke-linejoin:miter;stroke-miterlimit:4;stroke-opacity:1;stroke-dasharray:none;stroke-dashoffset:0"
         sodipodi:type="arc" />
    </g>
    <path
       style="fill:#fb0000;fill-opacity:1;stroke:#000000;stroke-width:12;stroke-linecap:butt;stroke-linejoin:miter;stroke-miterlimit:4;stroke-opacity:1;stroke-dasharray:none"
       d="m 260,732.36218 c 100,0 200,0 300,0 -20,80 -40,140 -140,140 -100,0 -140,-60 -160,-140 z"
       id="path3796"
       inkscape:connector-curvature="0"
       sodipodi:nodetypes="cczc" />
    <path
       style="fill:#0ddfff;fill-opacity:1;stroke:#000000;stroke-width:12;stroke-linecap:butt;stroke-linejoin:miter;stroke-miterlimit:4;stroke-opacity:1;stroke-dasharray:none"
       d="m 180,352.36216 c -20,-60 0,-120 0,-180 40,40 100,60 120,120"
       id="path3798"
       inkscape:connector-curvature="0"
       sodipodi:nodetypes="ccc" />
    <path
       style="fill:#0ddfff;fill-opacity:1;stroke:#000000;stroke-width:12;stroke-linecap:butt;stroke-linejoin:miter;stroke-miterlimit:4;stroke-opacity:1;stroke-dasharray:none"
       d="m 660,352.36216 c 20,-60 0,-120 0,-180 -40,40 -100,60 -120,120"
       id="path3798-4"
       inkscape:connector-curvature="0"
       sodipodi:nodetypes="ccc" />
    <path
       style="fill:none;stroke:#000000;stroke-width:12;stroke-linecap:round;stroke-linejoin:miter;stroke-miterlimit:4;stroke-opacity:1;stroke-dasharray:none"
       d="m 420,252.36216 c 20,-26.66667 60.52064,-46.67073 60,-80 -0.66675,-42.68229 -75.50284,-57.55006 -80,-100 -3.14095,-29.64833 26.66667,-53.33338 40,-79.99998"
       id="path3818"
       inkscape:connector-curvature="0"
       sodipodi:nodetypes="caac" />
    <path
       sodipodi:type="arc"
       style="fill:#f6f21a;fill-opacity:1;stroke:#000000;stroke-width:12;stroke-linecap:round;stroke-linejoin:miter;stroke-miterlimit:4;stroke-opacity:1;stroke-dasharray:none;stroke-dashoffset:0"
       id="path3820"
       sodipodi:cx="400"
       sodipodi:cy="-300"
       sodipodi:rx="40"
       sodipodi:ry="40"
       d="m 439.99999,-300.02753 c 0.0152,22.09139 -17.88108,40.01232 -39.97246,40.02752 -22.09139,0.0152 -40.01232,-17.88108 -40.02752,-39.97246 -0.0152,-22.09139 17.88108,-40.01232 39.97246,-40.02752 22.08201,-0.0152 39.99904,17.86645 40.0275,39.94845"
       transform="translate(40.00001,252.38969)"
       sodipodi:start="6.2824971"
       sodipodi:end="12.565082"
       sodipodi:open="true" />
  </g>
</svg>
